<svg xmlns="http://www.w3.org/2000/svg" version="1.1" xmlns:xlink="http://www.w3.org/1999/xlink" width="1500" height="1500" viewBox="0 0 1500 1500"><rect width="1500" height="1500" x="0" y="0" id="background" stroke="transparent" fill="#ffffff"></rect><svg xml:space="preserve" width="1000" height="1000" data-version="2" data-id="lg_z5CCjMLEqqqXB7PxUR" viewBox="0 0 803 803" x="250" y="250"><rect width="100%" height="100%" fill="transparent"></rect><circle r="50" fill="orange" transform="translate(401.5 401.5)scale(7.8746)"></circle><path fill="#001f3f" d="M415.815 239.702v-12.961a32.29 32.29 0 0 0 4.775-59.92l-22.171-11.029a9.664 9.664 0 0 1 4.32-18.419h3.411a9.778 9.778 0 0 1 9.665 9.665v1.705h22.74v-1.705a32.404 32.404 0 0 0-22.74-30.7v-13.075h-22.74v12.962a32.29 32.29 0 0 0-4.775 59.92l22.17 11.028a9.664 9.664 0 0 1-4.32 18.42h-3.41a9.778 9.778 0 0 1-9.665-9.665v-1.705h-22.74v1.705a32.404 32.404 0 0 0 22.74 30.699v13.075Zm-85.047 282.656-11.825-19.329c-33.314 20.125-50.937 57.532-50.937 108.014a68.22 68.22 0 0 0 32.973 58.896l12.507-19.101a45.48 45.48 0 0 1-22.74-39.795c0-29.448 6.935-68.56 40.022-88.685m335.184-32.518V467.1h22.74v-22.74h-22.74v-22.74h-22.74v22.74h-22.74v22.74h22.74v22.74zm-545.755-56.85v22.74h-22.74v22.74h22.74v22.74h22.74v-22.74h22.74v-22.74h-22.74v-22.74zm45.48-306.987v22.74h-22.74v22.74h22.74v22.74h22.74v-22.74h22.74v-22.74h-22.74v-22.74zm466.166 136.439v-22.74h22.74v-22.74h-22.74v-22.74h-22.74v22.74h-22.74v22.74h22.74v22.74zm-295.618-102.33h22.74v22.74h-22.74zm113.7 0h22.74v22.74h-22.74z"></path><path fill="#001f3f" d="M597.733 620.366c0-90.163-36.384-151.22-102.329-172.936v-59.92a11.37 11.37 0 0 0-4.093-8.527 113.699 113.699 0 0 0 49.573-93.801 11.37 11.37 0 0 0-11.37-11.37h-22.74a113.699 113.699 0 0 0-90.96 45.82v-35.019a113.699 113.699 0 1 0-22.74 0v35.02a113.699 113.699 0 0 0-90.958-45.821h-22.74a11.37 11.37 0 0 0-11.37 11.37 113.699 113.699 0 0 0 49.573 93.801 11.37 11.37 0 0 0-4.093 8.528v59.92c-65.946 21.83-102.33 82.772-102.33 172.935 0 76.065 70.494 119.612 193.289 119.612s193.288-43.547 193.288-119.612m-90.96-323.814h10.689a90.96 90.96 0 0 1-90.277 79.589h-10.688a90.96 90.96 0 0 1 90.277-79.59M313.486 171.484a90.96 90.96 0 1 1 181.918 0 90.96 90.96 0 0 1-181.918 0m-22.058 125.069h10.688a90.96 90.96 0 0 1 90.277 79.589h-10.688a90.96 90.96 0 0 1-90.277-79.59m113.017 102.33h68.22v45.48h-136.44v-45.48zm0 318.357c-51.278 0-170.549-9.437-170.549-96.872 0-58.1 16.146-131.777 92.551-153.266h156.109c76.292 21.49 92.437 95.166 92.437 153.266 0 87.435-119.27 96.872-170.548 96.872"></path><path fill="#001f3f" d="M324.856 660.388h22.74v22.74h-22.74z"></path></svg></svg>