<svg width="1230" height="1280" viewBox="0 0 1230 1280" fill="none" xmlns="http://www.w3.org/2000/svg">
<path d="M1131 329.047V950.952L615 1261.33L99 950.952V329.047L615 18.6709L1131 329.047Z" stroke="#242424" stroke-width="32"/>
<path d="M101.855 931.72C97.5745 920.28 95.4845 908.1 98.2545 895.96C100.195 888.09 104.005 881.37 111.475 878.11C122.265 867.07 131.925 856.04 140.805 843.32L192.555 769.24C203.185 754.02 207.195 735.99 210.205 717.98L214.755 690.71C196.565 676.6 181.425 659.83 167.915 641.27C183.945 631.61 198.835 622.66 214.965 614.6C226.245 608.97 237.655 604.94 249.195 600.38C236.175 589.42 224.795 579.72 214.285 567.88C186.065 537.8 171.695 498.51 174.645 457.25C179.265 392.42 220.345 342.47 279.955 316.02C273.485 332.09 267.545 346.08 262.955 361.64C248.455 414.57 256.685 459.81 305.555 488.61C321.155 497.8 337.345 504.25 355.005 509.14C394.455 520.06 432.095 533.4 469.065 551.04L515.835 573.36C529.085 579.68 542.355 584.63 555.915 588.64C595.155 600.27 621.99 664.68 664 662.7C697.64 661.11 755.17 657.11 786 669.5C811.89 679.9 842.95 679.13 867.5 692.33C890.44 704.66 926.09 741.04 951 732C963.29 727.54 1022.6 701.11 1032.5 692.33L1085 614.6C1102.5 599.07 1008.42 531.89 992.5 514L971 475V417L922 359.5C925.08 346.26 892.91 341.85 885 331C867.74 307.33 811.11 258.19 792 235.5C793.82 225.13 756.09 194.98 756 185C755.94 178.56 795 143 795 143L1116 338.5L1115.5 942.5L615 1243L222.865 1009.28C205.605 1003.25 189.815 996.71 173.535 988.73L138.595 963.65L106.745 937.43C104.935 935.94 102.545 933.52 101.875 931.73L101.855 931.72ZM237.085 871.09C254.915 845.77 270.145 820.33 285.045 793.7C296.625 773.02 311.235 755.99 330.215 741.69C379.115 704.84 436.845 689.87 498.725 692.33C507.705 663.13 529.305 647.12 560.745 646.06C545.125 625.11 525.415 609.56 503.045 596.97C466.495 576.4 428.715 559.28 388.705 546.62L342.255 531.92C318.385 524.37 297.015 512.42 278.025 496.16C251.855 473.75 236.825 441.55 237.615 407.03C237.825 392.17 241.155 379.16 245.325 364.04C208.665 401.59 201.145 458.18 225.165 503.95C234.665 522.05 247.895 536.74 264.335 548.85C277.265 557.83 290.555 564.95 304.885 571.04L343.085 556.53C327.435 570.98 312.505 583.7 298.705 599.31C282.905 617.18 269.515 635.94 258.555 657.16C247.885 677.81 241.625 699.1 237.215 721.9C232.875 744.36 224.925 764.65 211.465 783.09L176.5 832.5L144 875.5L122.5 897C144.32 926.42 189.585 914.06 215.765 894.41C224.285 888.01 230.675 880.17 237.075 871.08L237.085 871.09ZM898.375 783.44C881.865 796.17 867.215 807.07 849.435 815C823.225 827.75 795.495 832.8 766.205 830.56C738.255 827.69 712.215 817.91 688.705 802.35C656.585 781.09 630.025 753.68 608.195 722.07L585.545 686.62L561.935 647.42L541.095 662.7C528.275 673.74 518.445 687.17 511.455 702.77L557.425 764.81C591.765 807.58 635.525 841.19 686.625 861.46C743.335 883.96 808.775 881.35 856.945 842.54C875.945 827.23 891.135 807.37 898.385 783.45L898.375 783.44ZM614.575 920.51L596.855 866.63C572.195 852.53 550.125 836.62 529.455 817.81L504.925 796.44L512.685 866.13L548.085 897.26L614.575 920.51ZM168.785 958.83C167.225 965.89 169.995 972.55 174.605 976.25C179.675 980.31 186.205 981.56 192.565 979.01C210.325 971.88 222.515 954.26 221.685 935C221.415 928.69 218.015 922.48 211.865 921.43C206.275 920.48 199.955 923.95 197.325 928.84L190.975 940.62L181.975 943.54C175.135 945.76 170.425 951.43 168.795 958.81L168.785 958.83Z" fill="#121212"/>
<path d="M236.733 872.287C230.302 881.415 223.88 889.288 215.318 895.715C189.009 915.438 141.938 926.544 120 897L141.797 875.38L174.95 833.224L210.997 783.927C224.533 765.42 232.512 745.035 236.874 722.48C241.306 699.585 247.596 678.215 258.319 657.468C269.333 636.149 282.789 617.31 298.667 599.375C312.535 583.7 326.273 571.628 342 557.117L304.5 571.617C290.099 565.502 277.111 557.721 264.128 548.703C247.606 536.543 234.311 521.791 224.764 503.615C200.616 457.653 208.5 399.5 246 362C242.5 377.5 238.211 391.578 238 406.5C237.216 441.165 251.596 473.288 277.885 495.792C296.969 512.12 318.434 524.121 342.432 531.702L389.111 546.464C429.309 559.177 467.285 576.369 504.015 597.026C526.496 609.669 546.303 625.284 562 646.322C530.405 647.396 508.688 663.463 499.674 692.786C437.489 690.316 379.474 705.349 330.333 742.354C311.259 756.714 296.567 773.815 284.94 794.582C269.966 821.324 254.651 846.871 236.743 872.297L236.733 872.287Z" fill="#444444"/>
<path d="M899 782C891.692 806.204 877.382 826.946 858.231 842.438C809.679 881.709 743.71 884.35 686.56 861.583C635.054 841.072 590.957 807.063 556.335 763.785L510 701.008C517.035 685.222 526.953 671.633 539.875 660.462L560.881 645L584.678 684.666L607.508 720.537C629.511 752.522 656.281 780.268 688.656 801.771C712.363 817.516 738.599 827.412 766.771 830.316C796.294 832.582 824.072 827.401 850.5 814.5C868.421 806.476 882.359 794.881 899 782Z" fill="#444444"/>
<path d="M616 922L548.085 898.201L511.926 866.336L504 795L529.056 816.875C550.179 836.129 572.722 852.404 597.9 866.848L616 922Z" fill="#444444"/>
<path d="M168.453 959.134C170.102 951.637 174.867 945.877 181.786 943.621L190.891 940.655L197.315 928.687C199.986 923.72 206.37 920.194 212.025 921.16C218.257 922.216 221.686 928.525 221.96 934.945C222.799 954.512 210.467 972.412 192.5 979.655C186.066 982.246 179.459 980.976 174.33 976.852C169.667 973.103 166.864 966.327 168.442 959.154L168.453 959.134Z" fill="#444444"/>
<path d="M888.71 506.102C860.84 509.922 840.37 489.692 833 463.182L848.54 458.732C876.52 453.902 899.48 473.482 904.65 502.112L888.71 506.102Z" fill="#121212"/>
<path fill-rule="evenodd" clip-rule="evenodd" d="M882.68 270.7C872.61 267.92 853.5 268 851.5 269.5C851.5 269.5 841 282.14 829.5 224C818 165.86 796.5 142 796.5 142L616 36L115.5 337L115 874C129.4 859.2 143.667 839.5 149 831.5L171.5 799C175.5 793.167 185.2 779.2 192 770C198.8 760.8 203.167 749.167 204.5 744.5L207.5 734L215.5 690C193.5 672.8 175 649.833 168.5 640.5C205.7 615.7 238 602.833 249.5 599.5C201.9 562.3 184.333 524.333 181.5 510C181.5 510 162 461.5 189.5 400.5C217 339.5 280.5 315 280.5 315C255.5 370.5 251.5 411.5 265 442.5C278.5 473.5 318.5 498 350 505.5C375.2 511.5 411.167 524.333 426 530C432.667 532.333 454.9 541.4 490.5 559C526.1 576.6 557 589.667 564 591.5C552.4 553.5 550.167 506.333 554.5 490C560.22 466.77 568.67 444.29 583 424.5L578.13 467.35C577.24 490.85 580.87 513.53 590.8 534.95C619.68 597.27 682.84 634.53 750.51 639.31C782.83 641.59 809.68 644.22 839.17 659.64C868 674.71 894.79 691.77 921.73 709.82C955.05 732.15 991.42 718.96 1019.28 693.45L1036.44 677.74C1028.39 670.39 1021.43 663 1016.21 653.64C1009.61 640.62 1010.47 626.17 1019.46 614.45C1028.91 602.12 1042.82 594.75 1058.62 592.17L1029.94 558.66L960.42 478.97C966.66 458.13 971.98 442.06 964.84 421C959.57 410.8 954.01 401.77 946.95 392.69L903.93 337.35C911.49 331.04 917.83 325.38 922.8 317.95C924.06 316.06 925.38 314.33 927.05 313.95C926.99 307.51 925.53 300.34 921.44 295.05C911.84 282.62 897.73 274.84 882.68 270.7Z" fill="#F1F1F1"/>
<path d="M888.71 507.102C860.84 510.922 840.37 490.692 833 464.182L848.54 459.732C876.52 454.902 899.48 474.482 904.65 503.112L888.71 507.102Z" fill="#121212"/>
<path d="M927 312.973C927.09 322.953 924.457 332.403 922.627 342.773C941.737 365.453 960.107 387.543 977.377 411.213C985.287 422.063 988.937 433.863 985.857 447.103L978.647 478.123L1088.72 601.793C1104.64 619.683 1102.52 646.773 1085.02 662.303L1018.32 721.493C1008.43 730.273 997.497 736.803 985.207 741.263C960.297 750.303 935.167 746.903 912.227 734.573C887.677 721.373 863.277 709.763 837.397 699.353C806.577 686.963 764.377 684.163 730.727 685.753C688.717 687.733 626.501 659.5 595.001 631.5C563.501 603.5 540 564 553.617 490.883C559.337 467.643 569.17 443.79 583.5 424L579.5 467C578.61 490.5 581.07 512.09 591 533.5C619.88 595.82 681.797 633.543 749.467 638.333C781.787 640.613 808.627 643.243 838.127 658.663C866.957 673.733 893.747 690.793 920.687 708.843C954.007 731.173 990.387 717.983 1018.24 692.473L1035.4 676.763C1027.35 669.413 1020.39 662.023 1015.17 652.663C1008.57 639.653 1009.44 625.193 1018.42 613.473C1027.87 601.143 1041.78 593.783 1057.58 591.193L1028.9 557.683L959.377 477.993C965.617 457.153 970.937 441.083 963.797 420.023C958.527 409.823 952.967 400.793 945.907 391.713L902.887 336.373C910.447 330.073 916.797 324.403 921.757 316.973C923.017 315.093 924.337 313.353 926.007 312.973H927Z" fill="#C0C0C0"/>
<path d="M629.06 307.683L607.85 326.433C600.93 304.453 601.51 277.583 615.38 259.183C625.78 245.383 644.03 242.983 657.74 253.653C666.43 260.413 672.84 269.573 677.55 280.043C660.02 287.673 644.15 296.413 629.06 307.673V307.683Z" fill="#C0C0C0"/>
<path d="M584.57 363.382C573.17 354.052 563.93 342.792 556.96 329.232C531.93 278.682 561.88 204.462 615.32 190.162C640.51 183.422 665.65 192.722 680.21 214.092C688.84 226.752 694.79 240.402 696.1 256.302C688.23 245.302 680.1 235.682 669.21 228.122C648.85 213.972 622.58 214.222 603.64 230.372C576.95 253.142 568.5 292.572 574.22 326.952C576.57 339.242 580.61 350.452 585.25 362.022L585.95 362.832L585.87 364.482L584.57 363.382Z" fill="#C0C0C0"/>
<path d="M313.95 997.456C304.916 997.537 251.591 1026.09 251.591 1026.09L391.71 1109.81L377.691 1037.83C377.691 1037.83 322.983 997.374 313.95 997.456Z" fill="#F1F1F1"/>
<path d="M343.147 803.367C347.72 775.611 373.089 762.021 400.594 762.801L400.26 778.962C396.62 807.122 371.137 823.282 342.256 819.775L343.147 803.367Z" fill="#F1F1F1"/>
</svg>
