<?xml version="1.0" standalone="no"?>
<!DOCTYPE svg PUBLIC "-//W3C//DTD SVG 20010904//EN"
 "http://www.w3.org/TR/2001/REC-SVG-20010904/DTD/svg10.dtd">
<svg version="1.0" xmlns="http://www.w3.org/2000/svg"
 width="498.000000pt" height="501.000000pt" viewBox="0 0 498.000000 501.000000"
 preserveAspectRatio="xMidYMid meet">

<g transform="translate(0.000000,501.000000) scale(0.100000,-0.100000)"
fill="#000000" stroke="none">
<path d="M2506 4944 c-35 -11 -65 -31 -106 -72 l-57 -57 -162 -24 c-162 -23
-163 -23 -189 -4 -124 92 -235 77 -547 -71 -231 -110 -305 -180 -313 -298 -4
-56 -6 -60 -56 -100 -28 -24 -86 -74 -129 -112 -77 -69 -78 -70 -130 -67 -58
2 -119 -16 -173 -52 -33 -23 -179 -210 -220 -282 -138 -244 -138 -245 -139
-330 0 -66 4 -86 23 -116 26 -43 27 -63 5 -126 -9 -26 -28 -93 -42 -147 -25
-92 -29 -101 -61 -119 -52 -28 -99 -77 -120 -123 -54 -117 -54 -599 0 -703 28
-56 66 -97 111 -123 35 -20 41 -29 59 -92 11 -39 33 -111 49 -159 l28 -89 -26
-46 c-22 -41 -26 -58 -25 -127 1 -71 5 -87 34 -140 18 -33 44 -80 57 -105 43
-78 170 -263 218 -317 59 -67 147 -112 238 -121 64 -7 68 -9 159 -86 130 -110
138 -120 138 -167 0 -54 39 -128 93 -175 56 -49 268 -159 412 -215 86 -33 123
-42 170 -41 110 0 150 7 205 35 l55 27 120 -15 c65 -8 128 -18 140 -21 11 -4
46 -30 77 -59 67 -62 177 -107 210 -86 22 14 72 15 63 1 -4 -6 7 -10 27 -9 47
1 137 16 113 18 -11 2 36 14 105 27 203 40 194 39 185 24 -6 -10 -4 -12 9 -7
10 4 23 7 29 7 8 0 7 3 -1 9 -10 6 2 17 41 39 30 17 63 41 73 54 26 33 46 44
37 21 -6 -16 -5 -16 10 -4 9 7 17 19 17 25 0 7 16 31 36 54 28 34 32 42 18 42
-27 0 -7 13 61 40 33 13 84 36 113 52 60 32 63 33 56 14 -4 -10 3 -12 33 -6
21 3 60 0 88 -7 66 -17 92 -16 99 2 3 8 11 15 18 15 71 0 462 335 519 443 28
53 36 39 9 -15 -12 -23 -56 -78 -98 -122 -43 -43 -70 -75 -61 -70 9 5 48 43
87 85 91 98 116 156 109 252 -3 38 -1 80 4 95 10 26 10 26 -10 7 -12 -10 -21
-14 -21 -10 0 15 51 95 60 95 6 0 10 5 10 11 0 6 13 30 28 53 15 22 31 49 35
58 3 10 11 18 17 18 14 0 12 -11 -5 -34 -8 -11 -15 -24 -15 -30 0 -6 7 1 17
14 9 14 29 39 44 55 15 17 27 35 26 40 -1 6 16 16 39 23 89 28 163 130 213
295 23 76 40 112 41 87 0 -11 3 -11 11 3 6 10 8 33 5 51 -4 18 -2 44 3 57 5
13 10 17 11 9 1 -28 17 11 24 60 4 34 3 40 -4 25 -9 -18 -10 -17 -6 5 15 76
17 160 7 192 -6 19 -29 59 -51 88 -22 30 -40 60 -40 67 0 8 -3 12 -8 9 -4 -2
-7 51 -7 119 0 68 3 121 6 119 4 -2 11 14 17 36 7 30 7 40 -3 42 -8 2 5 23 32
53 25 28 42 42 39 32 -3 -10 -2 -16 3 -13 5 3 11 15 14 26 3 13 1 18 -6 13 -7
-4 -8 2 -4 18 20 72 19 156 -3 244 -33 138 -118 385 -147 429 -44 68 -106 112
-188 135 -32 8 -45 20 -64 53 -13 24 -48 80 -78 126 l-53 83 6 63 c15 148 -69
269 -331 481 -201 161 -279 188 -412 142 -28 -9 -41 -6 -125 32 -51 24 -118
54 -148 68 -48 21 -58 31 -74 69 -32 79 -92 134 -176 163 -98 33 -419 82 -535
80 -27 0 -72 -7 -99 -15z m326 -42 c26 -5 50 -7 54 -3 4 3 4 1 1 -5 -4 -8 20
-13 78 -18 201 -16 325 -110 325 -246 0 -35 -4 -52 -14 -56 -24 -9 -70 19 -84
51 -38 89 -59 108 -142 129 -129 33 -252 49 -395 52 -163 3 -255 11 -255 23 0
13 45 50 86 70 34 17 56 19 169 16 72 -2 151 -8 177 -13z m-893 -127 c36 -18
91 -83 91 -108 0 -35 -92 -51 -109 -18 -13 23 -70 51 -106 51 -71 0 -447 -169
-510 -229 -25 -24 -93 -61 -112 -61 -3 0 -3 15 1 33 5 30 5 31 -9 13 -15 -20
-15 -20 -15 0 0 34 50 94 112 135 63 40 236 127 303 152 22 8 63 24 90 35 40
15 68 18 143 16 56 -2 104 -10 121 -19z m511 -9 c74 -1 91 -5 133 -29 54 -32
60 -55 21 -86 -29 -23 -66 -28 -63 -8 5 30 -14 67 -38 74 -35 8 -199 -4 -303
-22 -110 -19 -122 -19 -118 2 2 10 20 22 43 29 22 7 33 13 25 14 -24 3 40 21
105 30 33 4 71 5 85 3 14 -3 63 -6 110 -7z m337 -6 c43 -6 92 -15 108 -20 17
-5 51 -11 78 -14 66 -7 71 -13 42 -48 -29 -34 -32 -68 -9 -104 9 -13 15 -27
12 -29 -2 -2 -49 5 -104 16 -54 11 -126 22 -159 25 -102 9 -107 11 -94 37 12
21 11 21 -8 5 -34 -31 -43 -20 -11 12 26 26 30 36 25 66 -11 68 -6 70 120 54z
m-290 -133 c43 -62 100 -88 179 -80 61 5 222 -20 338 -53 27 -8 60 -14 73 -14
13 0 40 -7 60 -15 35 -15 35 -16 18 -35 -30 -34 -109 -44 -195 -26 -105 21
-188 33 -314 46 -123 12 -160 25 -204 68 -63 62 -76 123 -29 142 36 14 42 12
74 -33z m578 33 c-4 -6 6 -10 23 -10 37 0 44 -7 29 -32 -10 -16 -8 -22 13 -38
14 -11 36 -23 50 -27 14 -3 58 -21 98 -40 39 -18 75 -33 78 -33 2 0 38 -16 79
-35 57 -27 75 -40 75 -55 0 -33 -24 -33 -87 -1 -60 31 -134 62 -238 100 -78
29 -132 67 -158 113 -17 31 -18 40 -7 52 14 17 55 22 45 6z m-1323 -54 c-3
-37 1 -48 28 -79 35 -40 34 -51 -6 -61 -15 -4 -83 -33 -153 -66 -69 -32 -137
-61 -149 -65 -21 -6 -23 -5 -13 13 17 31 13 47 -15 81 -14 17 -24 38 -20 46 4
11 0 12 -19 5 -36 -14 -31 6 7 24 17 9 36 16 41 16 6 0 18 6 26 14 16 14 183
86 198 86 4 -1 -17 -14 -47 -31 -67 -36 -30 -28 54 12 41 20 51 28 31 24 -28
-5 -29 -4 -11 10 37 28 52 20 48 -29z m128 6 c0 -10 15 -25 33 -35 31 -17 37
-17 68 -4 19 9 27 16 19 16 -13 1 -13 2 0 11 21 13 43 12 34 -1 -8 -14 53 -8
178 17 89 18 121 16 126 -8 3 -15 -4 -18 -35 -18 -42 0 -177 -23 -265 -45 -70
-18 -199 -20 -216 -3 -19 19 -14 37 14 63 32 30 44 31 44 7z m1635 -66 c187
-89 285 -170 285 -239 0 -38 -38 -62 -74 -46 -24 11 -25 13 -10 30 11 12 14
27 10 43 -9 38 -62 72 -275 176 -112 56 -121 62 -105 75 30 22 46 18 169 -39z
m-1162 -2 c18 -9 48 -31 67 -49 59 -56 115 -79 194 -81 100 -2 229 -21 311
-45 66 -20 136 -20 194 -2 14 4 14 3 1 -6 -13 -9 -12 -11 5 -11 11 0 27 5 35
10 12 8 12 10 -5 10 -16 0 -13 5 13 22 24 15 36 18 41 10 5 -8 17 -9 39 -3 37
11 61 5 157 -39 88 -40 105 -55 105 -95 0 -57 56 -152 118 -199 87 -65 190
-153 278 -237 74 -70 87 -78 140 -89 156 -32 152 -28 238 -172 l47 -77 -19
-43 c-43 -96 -39 -150 28 -342 23 -65 45 -137 50 -160 4 -22 13 -65 19 -95 14
-71 58 -137 120 -183 48 -36 49 -39 56 -103 4 -36 4 -99 0 -140 -6 -65 -10
-77 -33 -95 -104 -78 -121 -103 -147 -221 -22 -102 -51 -198 -88 -299 -39
-105 -42 -189 -9 -263 l22 -49 -26 -46 c-38 -72 -65 -113 -100 -157 -31 -37
-35 -39 -91 -41 -88 -2 -139 -30 -252 -140 -55 -53 -140 -127 -188 -164 -48
-37 -96 -76 -105 -86 -24 -27 -58 -119 -58 -158 0 -31 -4 -34 -92 -79 -51 -25
-113 -53 -137 -62 -40 -14 -45 -14 -70 5 -72 51 -177 73 -238 49 -47 -18 -181
-39 -312 -50 -108 -8 -131 -13 -180 -40 -31 -16 -67 -46 -81 -65 l-25 -35 -85
5 c-47 4 -112 12 -145 19 -58 11 -61 14 -87 62 -51 94 -93 124 -268 191 -41
16 -125 55 -187 87 -127 65 -179 76 -273 58 -73 -15 -72 -15 -186 92 l-79 75
3 80 c3 95 -8 127 -71 210 -55 71 -122 175 -176 272 -62 110 -84 129 -211 183
-33 13 -38 22 -60 93 -15 48 -25 103 -25 140 0 55 -2 60 -20 56 -14 -4 -7 9
25 47 25 29 50 70 56 90 7 21 12 28 13 16 0 -11 -8 -40 -19 -64 -15 -31 -16
-40 -6 -31 8 6 22 37 31 67 13 45 14 65 6 102 -14 60 -23 374 -11 366 16 -10
22 40 10 86 -21 81 -44 125 -108 204 -4 6 -5 21 -1 35 l7 25 2 -25 c2 -23 3
-22 13 8 8 26 7 36 -2 42 -10 6 -7 23 13 76 13 38 25 60 26 49 0 -17 3 -16 19
9 10 15 32 37 47 47 25 16 26 19 9 19 -12 0 -1 10 30 26 52 27 134 104 136
126 0 7 9 27 20 43 10 17 23 39 28 50 12 27 114 177 162 237 37 48 69 147 69
216 0 18 10 38 30 57 16 16 28 31 25 34 -3 2 -21 -11 -40 -29 -19 -18 -37 -31
-41 -28 -7 8 82 97 144 144 48 36 68 38 36 3 l-19 -21 36 21 c32 19 47 21 135
17 105 -5 155 4 195 35 l24 19 -25 -9 c-14 -5 -40 -17 -58 -26 -55 -28 -46
-11 11 20 219 118 344 171 322 136 -7 -13 55 5 69 19 8 8 3 8 -18 0 -48 -18
-43 -2 6 20 45 19 128 93 128 112 0 6 6 8 14 5 9 -4 21 5 31 19 9 14 31 32 48
39 18 8 25 15 17 15 -29 2 36 23 95 30 33 4 64 8 68 9 4 0 22 -6 40 -15z
m1522 -44 c42 -16 212 -150 322 -254 129 -123 158 -169 158 -256 0 -56 -4 -71
-30 -109 -37 -54 -48 -59 -68 -27 -13 19 -14 32 -7 57 16 55 12 97 -14 137
-52 83 -366 352 -428 367 -14 4 -41 22 -59 41 -28 29 -31 36 -19 44 20 13 112
13 145 0z m-1865 -25 c0 -36 -60 -97 -117 -119 -136 -52 -208 -84 -313 -138
-99 -52 -123 -60 -171 -61 -78 0 -154 37 -154 76 1 21 -3 26 -17 21 -26 -8
-22 11 7 30 27 18 60 22 50 6 -3 -5 0 -10 8 -10 7 0 42 -9 76 -21 l63 -20 54
27 c30 15 60 34 67 42 10 13 9 14 -11 3 -26 -14 -40 -10 -20 6 30 23 170 88
229 107 24 7 53 17 64 20 11 4 4 -2 -15 -13 -19 -11 -31 -20 -27 -21 24 -1
117 37 151 62 50 36 76 37 76 3z m-706 -68 c-4 -11 9 -14 58 -13 l63 1 -2 -29
c-1 -16 -9 -37 -19 -47 -13 -14 -20 -16 -40 -7 -13 6 -24 19 -24 30 0 10 -7
18 -16 18 -25 0 -140 -80 -251 -174 -56 -47 -107 -86 -113 -86 -14 0 -13 23 3
39 6 8 0 6 -15 -4 -53 -33 -28 3 50 72 121 107 190 154 135 89 -16 -17 -14
-17 22 4 22 13 53 34 68 47 23 18 25 23 11 23 -34 0 2 24 73 49 1 1 0 -5 -3
-12z m2330 -40 c13 -9 18 -28 20 -65 2 -63 20 -89 112 -160 130 -101 328 -289
357 -340 l18 -32 -33 0 c-73 0 -107 19 -211 118 -57 53 -132 120 -167 147 -36
28 -86 71 -112 97 l-48 48 0 82 c0 62 4 86 17 100 19 21 24 22 47 5z m314 -94
c101 -82 212 -186 212 -200 0 -8 -13 -13 -33 -13 -42 0 -68 -27 -76 -77 l-6
-36 -76 71 c-42 39 -101 92 -133 118 -66 55 -72 80 -23 107 17 10 26 13 20 6
-18 -18 -16 -34 2 -19 8 7 15 23 15 35 0 33 10 55 25 55 8 0 40 -21 73 -47z
m-2755 -136 c-21 -17 -83 -74 -138 -127 -55 -53 -119 -111 -142 -128 -75 -58
-143 -53 -121 9 13 39 20 41 63 23 l37 -15 52 49 c93 90 211 194 240 213 46
28 52 10 9 -24z m-310 -56 c25 -11 48 -24 51 -30 4 -6 -8 -27 -27 -47 -29 -32
-36 -35 -55 -25 -29 15 -77 14 -111 -4 -60 -31 -311 -412 -311 -473 0 -9 -10
-33 -22 -52 -12 -19 -27 -43 -33 -54 -19 -36 -30 -11 -30 71 0 44 -3 77 -6 71
-4 -6 -9 -6 -12 -1 -6 10 58 141 80 163 13 13 14 13 8 -7 -10 -37 3 -26 26 20
l22 42 -22 -19 c-35 -32 -24 -5 39 92 74 115 163 228 192 243 62 33 147 37
211 10z m3236 -77 c-13 -14 -25 -20 -27 -14 -7 20 7 40 29 40 l22 0 -24 -26z
m65 0 c24 -9 21 -54 -4 -54 -31 0 -24 -29 22 -90 81 -106 188 -270 191 -291 1
-12 -6 -26 -17 -33 -15 -9 -20 -8 -30 8 -55 90 -116 181 -153 228 -55 72 -82
132 -83 180 0 47 30 69 74 52z m-3236 -31 c-15 -15 -30 -24 -34 -21 -8 8 32
48 48 48 7 0 0 -12 -14 -27z m59 -77 c-3 -8 1 -17 9 -20 29 -11 10 -97 -36
-156 -52 -67 -155 -225 -189 -290 -49 -93 -68 -115 -120 -143 -51 -27 -109
-39 -151 -31 -22 5 -27 10 -23 28 5 21 5 21 -10 1 -16 -19 -16 -18 -8 12 5 17
14 40 21 50 10 16 11 14 7 -10 -3 -20 -1 -25 8 -17 6 5 36 15 66 21 75 16 86
23 112 77 13 26 36 69 51 95 16 26 26 50 23 53 -3 3 -20 -19 -38 -50 -18 -30
-35 -53 -37 -51 -6 6 76 151 93 165 8 7 15 17 15 22 0 15 62 98 73 98 5 0 2
-12 -8 -26 -9 -14 -15 -27 -13 -30 6 -5 72 75 88 106 7 14 22 36 34 49 l21 25
-27 -17 c-42 -26 -45 -20 -8 18 35 36 56 46 47 21z m3383 4 c0 -5 -5 -10 -11
-10 -5 0 -7 5 -4 10 3 6 8 10 11 10 2 0 4 -4 4 -10z m-3686 -32 c-16 -31 -16
-32 0 -19 15 13 20 12 39 -13 12 -15 39 -33 59 -40 l38 -12 -33 -52 c-17 -29
-52 -85 -76 -125 -25 -39 -55 -87 -69 -105 l-24 -34 -19 31 c-17 29 -34 40
-82 55 -21 7 -17 17 41 104 19 29 32 55 29 58 -6 7 -48 -57 -79 -121 -12 -24
-28 -47 -36 -50 -12 -5 36 92 78 155 9 14 36 54 60 90 61 92 74 109 83 110 4
0 0 -15 -9 -32z m3644 -40 c-2 -6 -10 -14 -16 -16 -7 -2 -10 2 -6 12 7 18 28
22 22 4z m48 -35 c36 -46 148 -240 170 -293 25 -63 32 -147 14 -181 -12 -22
-47 -24 -74 -4 -23 18 -15 42 19 55 14 5 25 14 25 20 0 23 -90 200 -143 283
-58 89 -72 137 -41 137 9 0 23 -8 30 -17z m329 -315 c46 -55 93 -181 150 -403
39 -154 43 -211 20 -276 -35 -99 -164 -173 -181 -104 -5 19 0 30 24 50 17 14
29 32 26 39 -3 8 0 17 7 22 9 5 10 2 6 -10 -11 -27 15 -14 33 16 13 23 12 37
-4 120 -18 91 -66 263 -91 323 -7 17 -18 48 -25 70 -7 22 -22 56 -35 75 -35
52 -47 106 -29 125 13 13 19 13 43 0 16 -8 41 -29 56 -47z m-305 32 c0 -5 -5
-10 -11 -10 -5 0 -7 5 -4 10 3 6 8 10 11 10 2 0 4 -4 4 -10z m-3846 -19 c15
-17 21 -44 17 -78 -2 -18 -46 -16 -61 2 -25 30 -52 -12 -107 -164 -39 -111
-63 -194 -63 -221 0 -25 -15 -33 -46 -26 -30 8 -30 22 -3 112 23 78 63 175 54
132 -3 -16 -3 -28 0 -28 6 0 45 86 45 100 0 27 55 103 101 139 30 24 44 41 37
44 -7 3 -8 6 -2 6 6 1 18 -7 28 -18z m3900 -22 c7 -22 4 -33 -17 -60 -39 -52
-41 -77 -12 -160 50 -141 63 -185 94 -317 22 -89 31 -151 29 -189 l-3 -57 -38
33 c-48 43 -59 69 -97 226 -17 72 -47 173 -68 225 -30 78 -37 108 -37 167 0
48 5 76 14 85 11 11 12 8 7 -16 -6 -24 1 -18 40 33 50 67 72 74 88 30z m-4039
-73 c-25 -43 -45 -65 -45 -51 0 10 32 67 49 88 26 31 23 9 -4 -37z m4055 -26
c-11 -20 -30 -28 -30 -12 0 11 22 32 32 32 5 0 4 -9 -2 -20z m131 -67 c-12
-20 -14 -14 -5 12 4 9 9 14 11 11 3 -2 0 -13 -6 -23z m77 -131 c41 -132 67
-240 60 -248 -4 -3 -17 1 -30 10 -32 23 -77 20 -105 -6 -31 -29 -33 -24 -68
106 -14 56 -33 120 -42 143 -21 58 -14 69 47 75 38 4 55 11 67 28 15 21 17 22
29 6 7 -10 26 -61 42 -114z m-103 98 c-3 -5 -12 -10 -18 -10 -7 0 -6 4 3 10
19 12 23 12 15 0z m-4081 -107 c-4 -16 -17 -64 -29 -108 -13 -44 -28 -107 -35
-140 -20 -100 -40 -152 -75 -192 -28 -32 -36 -36 -52 -27 -12 7 -18 23 -18 45
0 31 3 34 30 34 17 0 36 4 43 8 15 10 16 57 1 57 -16 0 -1 51 20 71 10 9 25
47 35 85 27 103 47 167 59 182 17 21 28 13 21 -15z m-250 -224 c-5 -9 6 -10
40 -5 43 7 46 6 46 -16 0 -48 -11 -67 -44 -74 -40 -8 -74 -39 -93 -84 -23 -53
-22 -494 1 -538 18 -34 23 -172 6 -172 -22 0 -86 80 -103 129 -20 57 -43 339
-30 375 4 12 5 52 4 90 -2 43 1 66 7 62 5 -3 15 14 21 39 14 57 13 67 -5 30
l-14 -30 6 34 c11 60 32 98 71 128 21 17 45 33 53 36 26 9 42 8 34 -4z m4416
-27 c0 -4 -9 -13 -20 -20 -16 -10 -20 -10 -20 2 0 8 6 17 13 19 19 8 27 8 27
-1z m50 -34 c11 -12 20 -27 20 -34 0 -19 -25 -34 -51 -32 -27 3 -26 24 -18
-279 2 -94 0 -156 -6 -161 -6 -6 -19 -6 -31 -2 -19 8 -21 15 -17 67 2 32 4
117 4 188 0 150 13 229 40 256 24 24 34 24 59 -3z m-4253 -60 c-6 -22 -6 -22
12 2 16 20 21 22 35 11 33 -28 44 -98 33 -223 -7 -77 -7 -154 -1 -230 11 -131
4 -180 -35 -239 -29 -43 -106 -102 -125 -96 -6 2 -12 15 -14 29 -2 20 8 37 42
71 43 42 46 48 46 96 0 28 -3 51 -7 51 -9 0 -7 312 2 414 5 48 4 66 -4 62 -14
-9 -14 16 1 49 14 31 22 33 15 3z m-177 -22 c0 -2 -7 -9 -15 -16 -12 -10 -15
-10 -15 4 0 9 7 16 15 16 8 0 15 -2 15 -4z m90 -131 c-11 -13 -10 -14 2 -10
13 5 16 -19 20 -177 3 -101 4 -185 2 -187 -2 -2 -18 6 -37 18 -44 27 -56 26
-99 -3 l-36 -24 -5 52 c-3 28 -5 113 -5 189 0 157 4 165 70 139 37 -14 40 -14
66 5 30 23 42 22 22 -2z m4407 -259 c-7 -185 -20 -247 -62 -303 -44 -56 -110
-33 -85 31 8 22 13 24 44 19 39 -6 36 -12 55 108 6 36 11 121 11 188 0 128 12
182 33 146 6 -12 8 -79 4 -189z m-107 -140 c0 -42 -2 -45 -32 -52 -75 -16 -97
-47 -122 -174 -10 -47 -39 -151 -67 -232 -27 -81 -49 -152 -49 -157 0 -13 -52
-91 -61 -91 -17 0 -29 32 -34 96 -5 57 -2 76 14 109 18 36 20 37 14 10 -10
-53 13 -15 41 68 25 74 36 140 16 92 -12 -28 -13 3 -1 41 5 16 15 55 22 88 8
37 15 52 19 42 4 -12 11 0 22 36 14 43 14 49 3 34 -12 -16 -15 -17 -15 -4 0
27 30 71 68 101 39 30 74 38 52 12 -9 -11 -1 -10 41 5 30 10 57 19 62 19 4 1
7 -19 7 -43z m-4320 -5 c29 -25 33 -32 24 -48 -7 -10 -23 -18 -40 -19 -29 0
-29 0 -28 -60 1 -60 52 -284 81 -351 14 -34 14 -38 -3 -50 -10 -7 -23 -12 -29
-10 -14 5 -64 159 -78 242 -16 96 -14 211 5 263 13 34 13 40 2 31 -11 -9 -14
-8 -14 3 0 38 35 37 80 -1z m4520 -71 c31 -62 23 -158 -32 -345 -11 -38 -23
-81 -26 -95 -4 -14 -22 -67 -41 -118 -44 -119 -98 -181 -182 -207 -61 -19 -91
-16 -127 14 -22 19 -22 20 -5 55 17 37 33 47 33 21 0 -18 40 -11 77 12 11 8
23 10 25 5 5 -15 45 5 61 30 20 32 31 82 16 73 -8 -6 -9 2 -4 26 11 48 43 118
44 95 1 -25 9 -16 21 23 8 29 -3 46 -13 19 -2 -7 -2 1 1 17 5 36 31 87 32 65
2 -21 18 19 19 45 1 17 -1 17 -9 5 -8 -12 -10 -11 -10 7 0 29 16 71 35 89 17
17 21 94 5 94 -5 0 -10 8 -10 19 0 29 21 82 30 76 5 -3 11 -1 15 5 12 19 24
10 45 -30z m-230 -19 c0 -5 -9 -11 -20 -14 -20 -5 -26 3 -13 16 9 10 33 8 33
-2z m86 -128 c-10 -10 -19 5 -10 18 6 11 8 11 12 0 2 -7 1 -15 -2 -18z m-110
-2 c20 -19 76 -31 95 -20 15 7 19 6 19 -5 0 -20 -28 -141 -40 -169 -5 -12 -16
-49 -26 -82 -9 -33 -24 -73 -31 -89 l-15 -28 -33 36 c-27 30 -40 36 -72 36
-21 0 -45 -6 -52 -12 -11 -11 -12 -8 -6 12 4 14 13 39 20 55 13 30 48 144 61
198 4 19 9 25 14 17 5 -8 12 1 20 24 11 35 27 45 46 27z m-4146 -131 c12 -41
35 -109 50 -150 40 -105 50 -147 50 -205 0 -65 -9 -77 -51 -73 -26 2 -35 8
-37 26 -2 12 1 22 5 22 5 0 17 6 27 13 17 12 15 22 -32 167 -71 222 -76 243
-62 270 16 29 23 19 50 -70z m3886 -77 c-18 -33 -21 -26 -6 13 6 15 13 24 16
21 3 -3 -1 -18 -10 -34z m-3936 -133 c0 -5 -5 -10 -11 -10 -5 0 -7 5 -4 10 3
6 8 10 11 10 2 0 4 -4 4 -10z m286 -54 c22 -24 68 -93 102 -154 35 -60 89
-142 119 -181 59 -79 83 -133 83 -190 0 -50 -26 -125 -52 -147 -19 -18 -20
-18 -39 5 -11 13 -18 30 -15 38 3 7 8 35 12 61 7 58 3 68 -78 174 -32 42 -58
80 -58 83 0 4 -11 21 -24 38 -13 18 -44 71 -70 118 -26 48 -53 92 -61 99 -17
14 -30 73 -20 89 3 6 19 11 34 11 21 0 39 -12 67 -44z m3843 18 c12 -15 21
-41 21 -60 0 -31 -3 -34 -30 -34 -16 0 -30 5 -30 10 0 6 -9 10 -19 10 -15 0
-33 -27 -73 -102 -68 -131 -158 -268 -175 -268 -17 0 -16 14 3 53 l15 32 -31
-35 c-43 -48 -31 -16 28 72 26 41 51 82 55 91 3 9 11 17 17 17 6 0 4 -12 -5
-30 -24 -46 -11 -36 28 23 37 55 58 105 38 93 -16 -10 -13 8 7 43 17 31 39 43
28 16 -9 -25 6 -17 50 26 24 24 40 48 37 55 -9 24 14 15 36 -12z m-4094 -16
c13 -31 12 -35 -12 -59 -30 -33 -41 -96 -23 -141 36 -89 258 -428 281 -428 10
0 99 -115 99 -129 0 -17 -61 -12 -105 8 -53 24 -91 63 -174 180 -71 99 -105
155 -167 275 -34 65 -36 74 -32 147 1 42 0 72 -4 66 -5 -7 -8 -1 -8 14 0 33
26 60 32 32 2 -13 11 -8 36 25 40 50 58 53 77 10z m6 -115 c-8 -15 -10 -15
-11 -2 0 17 10 32 18 25 2 -3 -1 -13 -7 -23z m139 -68 c-7 -9 -15 -13 -18 -10
-3 2 1 11 8 20 7 9 15 13 18 10 3 -2 -1 -11 -8 -20z m55 -7 c8 -13 53 -80 99
-150 l84 -128 -43 0 c-52 0 -85 -28 -85 -72 0 -15 -3 -28 -7 -28 -23 1 -219
312 -208 329 3 6 24 11 45 11 32 0 43 6 60 30 26 36 34 37 55 8z m3825 -96 c0
-15 -106 -178 -165 -254 -84 -107 -139 -148 -201 -148 -20 0 -24 5 -24 28 0
15 7 38 16 50 14 20 18 21 27 9 22 -27 64 -29 87 -5 24 26 26 40 4 31 -14 -5
-15 -3 -6 14 6 11 18 25 26 33 14 10 16 10 16 -6 0 -28 46 23 113 126 31 47
63 95 72 108 16 22 35 30 35 14z m-462 -170 c-21 -9 -86 -62 -144 -117 -59
-55 -135 -122 -170 -148 -66 -49 -81 -67 -41 -46 31 17 128 99 227 195 107
102 136 118 220 119 114 0 141 -17 101 -66 -17 -21 -28 -24 -94 -24 l-75 0
-88 -85 c-49 -47 -136 -124 -194 -170 -58 -45 -109 -89 -115 -95 -10 -12 -68
-35 -88 -35 -5 0 -6 12 -3 28 l6 27 -15 -25 c-17 -30 -19 -15 -3 31 15 44 56
97 90 115 37 19 148 113 243 204 81 79 124 108 160 108 13 0 6 -6 -17 -16z
m-3236 -58 c-12 -8 -22 -20 -22 -26 0 -6 8 -4 18 5 33 30 82 18 82 -19 0 -17
-6 -24 -20 -24 -61 0 20 -109 198 -263 50 -44 92 -85 92 -91 0 -6 -4 -18 -10
-26 -14 -22 -46 0 -176 124 -124 117 -155 157 -175 227 -7 24 -17 47 -23 51
-18 12 11 58 36 58 l22 0 -22 -16z m3544 -205 c-22 -63 -62 -113 -165 -208
-268 -247 -375 -303 -489 -256 -52 23 -81 52 -74 77 4 17 2 20 -11 15 -33 -13
-16 10 25 33 34 19 40 20 35 7 -4 -12 -1 -17 11 -17 9 0 43 -9 75 -20 51 -17
63 -18 90 -6 35 14 86 63 54 50 -30 -11 -9 19 35 50 51 36 90 70 185 160 48
46 73 64 73 52 0 -15 2 -15 26 0 14 10 34 35 45 56 l20 40 -20 -7 c-31 -9 -26
-1 27 49 l47 45 12 -40 c10 -33 10 -49 -1 -80z m-309 87 c-9 -23 40 -83 78
-96 19 -6 35 -15 35 -19 0 -28 -257 -251 -288 -251 -6 0 -14 14 -17 32 -9 39
-61 88 -95 89 l-25 0 25 17 c54 37 168 133 220 185 55 55 77 69 67 43z m-3011
-62 c-4 -9 -9 -15 -11 -12 -3 3 -3 13 1 22 4 9 9 15 11 12 3 -3 3 -13 -1 -22z
m106 -57 c35 -29 103 -83 151 -121 94 -73 147 -135 147 -172 0 -36 -54 -57
-90 -34 -12 7 -12 12 4 29 17 19 17 23 3 44 -8 13 -36 39 -61 58 -183 136
-246 194 -246 226 0 35 23 28 92 -30z m474 -152 c72 -35 173 -80 224 -99 50
-20 105 -45 121 -57 50 -35 81 -95 87 -166 5 -61 4 -63 -19 -63 -37 0 -64 24
-78 69 -15 53 -59 87 -157 123 -97 35 -381 176 -408 202 -15 15 -17 23 -8 37
8 13 8 19 -1 23 -7 3 15 2 48 0 47 -4 89 -19 191 -69z m2078 -36 c-4 -8 11
-10 52 -8 l59 4 -1 -38 c-2 -50 -23 -73 -53 -58 -11 7 -21 18 -21 27 0 32 -34
24 -130 -31 -121 -68 -244 -125 -271 -125 -25 0 -24 15 2 34 20 13 20 14 2 19
-13 3 -8 8 22 21 22 9 68 31 103 48 78 37 93 32 17 -7 -31 -15 -54 -30 -51
-32 6 -6 150 63 194 93 49 34 52 37 17 24 -36 -13 -23 2 20 24 35 19 49 20 39
5z m-2414 -44 c7 -8 9 -26 5 -44 -8 -37 16 -96 52 -127 72 -62 458 -234 525
-234 26 0 98 -31 98 -42 0 -16 -83 -48 -125 -48 -100 0 -507 181 -585 261 -46
48 -77 127 -61 158 6 11 11 30 11 43 0 13 5 29 12 36 16 16 53 15 68 -3z m300
-64 c30 -16 96 -46 145 -66 50 -21 92 -39 94 -41 2 -2 -10 -17 -28 -33 -34
-32 -39 -61 -17 -103 11 -21 12 -28 3 -28 -41 0 -347 142 -347 161 0 6 11 20
25 31 14 11 25 24 25 30 0 6 -10 3 -22 -8 l-23 -19 23 26 c12 14 22 34 22 45
0 43 25 44 100 5z m1425 -21 c-3 -5 -14 -10 -23 -10 -15 0 -15 2 -2 10 20 13
33 13 25 0z m187 -40 c54 -36 92 -88 77 -106 -5 -7 -26 -15 -46 -19 -31 -6
-40 -2 -68 25 -41 40 -84 46 -181 27 -179 -36 -455 -64 -492 -50 -24 9 -24 9
12 41 20 18 32 32 27 32 -6 0 -26 -14 -45 -31 -20 -17 -41 -29 -47 -27 -6 2
10 21 36 42 l47 39 131 2 c74 1 132 6 134 12 2 5 18 8 36 6 23 -3 28 -2 18 6
-25 17 24 23 214 29 98 3 102 2 147 -28z m403 -59 c5 -9 -129 -78 -220 -114
-165 -65 -232 -77 -288 -54 -50 21 -49 45 3 80 30 21 44 22 36 2 -6 -18 60
-55 84 -47 56 19 64 23 51 31 -10 6 -9 10 5 15 10 4 21 1 25 -6 10 -16 79 6
195 62 85 41 100 45 109 31z m-1765 -55 c-14 -12 -27 -19 -28 -14 -6 13 18 38
37 38 12 0 10 -6 -9 -24z m1174 -41 c-6 -52 -5 -56 26 -85 l32 -30 -24 -9
c-61 -23 -323 -59 -353 -47 -9 3 -13 11 -9 18 6 10 4 11 -7 1 -24 -24 -30 -13
-8 16 16 22 20 37 15 58 -9 34 -10 72 -3 80 3 3 54 6 114 8 151 4 151 4 134
14 -10 7 -2 12 30 19 24 5 47 10 52 11 4 1 4 -24 1 -54z m-1094 30 c0 -8 -4
-15 -10 -15 -20 0 -9 -30 17 -47 48 -32 233 -80 348 -91 64 -6 70 -9 73 -31 4
-23 3 -23 -65 -17 -245 24 -453 97 -453 158 0 38 19 58 55 58 24 0 35 -5 35
-15z m447 -37 c18 -5 66 -11 107 -13 72 -3 155 -29 170 -54 12 -19 -4 -51 -34
-66 -41 -21 -47 -19 -54 20 -4 19 -15 39 -24 44 -9 4 -66 11 -126 15 -120 7
-228 22 -265 37 -19 8 -21 12 -11 24 10 12 31 14 109 9 53 -3 111 -10 128 -16z
m689 -15 c-10 -10 -19 5 -10 18 6 11 8 11 12 0 2 -7 1 -15 -2 -18z m224 -98
c0 -29 -51 -90 -93 -112 -77 -39 -337 -83 -513 -86 l-131 -2 -51 35 c-36 24
-57 48 -73 82 -22 48 -23 49 -3 67 39 38 60 35 91 -11 16 -24 47 -53 70 -66
37 -20 50 -22 122 -16 44 4 78 10 76 14 -6 9 152 32 230 34 95 2 195 31 195
56 0 8 45 26 73 29 4 1 7 -10 7 -24z m-1294 -100 c-11 -8 -24 -15 -30 -15 -5
0 -1 7 10 15 10 8 24 14 29 14 6 0 1 -6 -9 -14z"/>
<path d="M2510 4890 c-9 -6 -10 -10 -3 -10 6 0 15 5 18 10 8 12 4 12 -15 0z"/>
<path d="M1611 4739 c-13 -5 -21 -12 -18 -15 3 -3 18 1 34 10 31 17 21 20 -16
5z"/>
<path d="M1474 4674 c-18 -14 -18 -15 4 -4 12 6 22 13 22 15 0 8 -5 6 -26 -11z"/>
<path d="M1325 4599 c-59 -37 -93 -67 -107 -94 -6 -11 5 -4 23 16 19 20 60 51
92 68 31 18 57 35 57 37 0 9 -18 2 -65 -27z"/>
<path d="M1476 4515 c-11 -8 -15 -15 -10 -15 6 0 19 7 30 15 10 8 15 14 9 14
-5 0 -19 -6 -29 -14z"/>
<path d="M2005 4370 c-16 -17 -16 -20 -3 -15 9 4 19 13 22 21 7 19 2 18 -19
-6z"/>
<path d="M1730 4240 c-8 -5 -10 -10 -5 -10 6 0 17 5 25 10 8 5 11 10 5 10 -5
0 -17 -5 -25 -10z"/>
<path d="M1650 4200 c-8 -5 -10 -10 -5 -10 6 0 17 5 25 10 8 5 11 10 5 10 -5
0 -17 -5 -25 -10z"/>
<path d="M2342 3768 c-7 -7 -12 -23 -12 -37 1 -29 44 -66 145 -124 60 -34 135
-77 379 -221 72 -42 137 -76 146 -76 41 0 53 51 20 92 -10 14 -68 53 -127 88
-151 88 -202 118 -328 193 -176 103 -197 111 -223 85z"/>
<path d="M1055 3748 c-4 -13 -17 -36 -28 -53 -14 -20 -16 -26 -5 -17 19 15 52
81 45 89 -3 2 -8 -6 -12 -19z"/>
<path d="M963 3608 c-20 -26 -26 -41 -15 -34 12 7 36 46 29 46 -3 0 -9 -6 -14
-12z"/>
<path d="M2305 3555 l-36 -66 23 -20 c13 -11 100 -65 193 -120 94 -56 207
-123 252 -151 55 -33 89 -47 102 -43 10 3 32 30 47 59 24 47 27 57 16 80 -6
15 -33 39 -58 54 -26 15 -105 62 -176 105 -71 42 -130 77 -132 77 -2 0 -39 20
-82 45 -44 25 -86 45 -96 45 -10 0 -31 -26 -53 -65z"/>
<path d="M874 3475 c-21 -30 -35 -58 -32 -61 3 -3 16 12 29 33 12 21 29 48 37
61 8 12 12 22 8 22 -3 0 -22 -25 -42 -55z"/>
<path d="M2187 3347 c-30 -50 -65 -110 -77 -132 -13 -22 -30 -52 -39 -67 -63
-106 -187 -325 -189 -334 -2 -6 12 -22 30 -36 44 -34 487 -294 515 -302 26 -8
47 17 128 162 31 56 59 102 62 102 2 0 2 -4 -1 -9 -11 -17 60 -67 252 -180
136 -80 198 -110 212 -106 18 6 18 4 8 -25 -9 -28 -8 -34 13 -54 13 -13 105
-70 204 -128 99 -58 281 -165 405 -238 325 -192 347 -203 393 -197 46 6 82 37
98 84 14 43 -7 107 -49 145 -15 14 -108 73 -207 130 -99 58 -194 114 -212 124
-389 228 -522 304 -532 304 -5 0 -20 -14 -32 -32 l-23 -32 -11 26 c-6 15 -22
35 -35 45 -26 20 -328 197 -391 229 l-35 18 63 111 c35 60 63 118 63 128 0 24
-38 60 -96 91 -27 15 -62 35 -79 45 -71 43 -323 189 -352 204 l-32 17 -54 -93z
m444 -590 c-10 -9 -11 -8 -5 6 3 10 9 15 12 12 3 -3 0 -11 -7 -18z"/>
<path d="M801 3349 c-7 -12 -10 -23 -8 -26 3 -3 11 5 17 17 15 28 8 35 -9 9z"/>
<path d="M740 3270 c-9 -6 -10 -10 -3 -10 6 0 15 5 18 10 8 12 4 12 -15 0z"/>
<path d="M1804 2684 l-37 -66 24 -22 c13 -12 78 -54 144 -93 418 -246 388
-231 411 -215 6 4 23 28 38 55 42 71 30 91 -96 164 -56 32 -122 70 -147 85
-63 38 -185 108 -234 136 -22 12 -46 22 -53 22 -7 0 -30 -30 -50 -66z"/>
<path d="M1257 2663 c-4 -3 -7 -40 -7 -81 0 -149 -52 -273 -160 -384 -39 -39
-70 -76 -70 -83 0 -13 69 -49 114 -59 40 -10 91 -68 106 -122 11 -37 10 -53
-5 -106 l-17 -61 24 -18 c30 -24 38 -24 94 6 26 14 59 25 73 25 43 0 55 13 41
41 -18 34 -29 39 -82 39 l-48 0 0 36 c0 46 -53 146 -94 180 -17 14 -39 32 -50
41 -18 14 -17 16 7 41 34 36 90 128 110 179 9 23 21 70 26 104 13 79 20 86 69
71 22 -7 56 -12 76 -12 42 0 55 18 38 56 -10 20 -19 24 -56 24 -57 0 -82 10
-130 54 -41 37 -48 41 -59 29z"/>
<path d="M1652 2570 c-18 -29 -15 -43 16 -72 23 -23 304 -192 555 -336 82 -47
120 -51 132 -12 13 42 -25 78 -170 161 -77 45 -178 104 -225 131 -47 28 -98
58 -115 68 -16 9 -54 31 -83 49 -61 36 -92 39 -110 11z"/>
<path d="M2457 2276 c-5 -13 22 -67 46 -91 26 -25 93 -65 109 -65 22 0 22 -11
3 -74 -21 -68 -19 -179 5 -246 10 -30 16 -58 14 -62 -3 -5 -20 -8 -37 -8 -90
0 -189 -71 -217 -156 -12 -35 -11 -39 10 -56 32 -26 43 -21 82 37 55 83 123
109 231 91 43 -8 47 -7 47 12 0 11 -15 51 -32 88 -30 62 -33 78 -33 159 0 82
3 97 33 156 36 75 37 78 20 114 -11 24 -14 25 -68 19 -67 -7 -105 8 -147 61
-29 36 -57 45 -66 21z"/>
<path d="M1328 1613 c-26 -30 -38 -60 -38 -95 0 -26 6 -36 31 -50 28 -16 70
-18 473 -18 330 0 445 3 454 12 25 25 6 94 -41 146 l-20 22 -422 0 c-389 0
-423 -1 -437 -17z"/>
<path d="M1243 1410 c-43 -26 -68 -70 -39 -70 7 0 19 -7 26 -15 18 -22 1108
-23 1116 -1 8 20 -22 62 -61 86 -31 19 -48 20 -521 20 -467 0 -490 -1 -521
-20z"/>
<path d="M1650 4360 c-8 -5 -10 -10 -5 -10 6 0 17 5 25 10 8 5 11 10 5 10 -5
0 -17 -5 -25 -10z"/>
<path d="M1040 4219 c-19 -17 -26 -26 -15 -21 18 9 64 52 54 52 -2 0 -20 -14
-39 -31z"/>
<path d="M715 4070 c-3 -6 1 -7 9 -4 18 7 21 14 7 14 -6 0 -13 -4 -16 -10z"/>
<path d="M639 4013 c-13 -16 -12 -17 4 -4 9 7 17 15 17 17 0 8 -8 3 -21 -13z"/>
<path d="M575 3933 l-17 -28 23 22 c12 12 20 25 17 28 -3 3 -13 -7 -23 -22z"/>
<path d="M493 3818 c-6 -7 -16 -24 -22 -38 -12 -24 -12 -24 4 -5 20 24 37 55
32 55 -3 0 -9 -6 -14 -12z"/>
<path d="M365 3600 c-9 -18 -14 -34 -11 -37 2 -3 12 9 21 27 9 18 14 34 11 37
-2 3 -12 -9 -21 -27z"/>
<path d="M804 3635 c-9 -14 -14 -28 -11 -31 3 -3 13 8 22 25 19 37 12 41 -11
6z"/>
<path d="M645 3784 c-9 -15 -12 -23 -6 -20 11 7 35 46 28 46 -3 0 -12 -12 -22
-26z"/>
<path d="M327 3121 c-4 -17 -3 -21 5 -13 5 5 8 16 6 23 -3 8 -7 3 -11 -10z"/>
<path d="M4331 3354 c0 -11 3 -14 6 -6 3 7 2 16 -1 19 -3 4 -6 -2 -5 -13z"/>
<path d="M179 2883 c-13 -15 -12 -15 9 -4 23 12 28 21 13 21 -5 0 -15 -7 -22
-17z"/>
<path d="M4539 2260 c-9 -5 -24 -22 -34 -37 -16 -25 -14 -25 19 6 44 42 48 50
15 31z"/>
<path d="M4526 1825 c-3 -9 -6 -22 -5 -28 0 -7 5 -1 10 12 5 13 8 26 5 28 -2
2 -6 -3 -10 -12z"/>
<path d="M4314 1368 c-4 -7 -15 -24 -23 -38 -10 -15 -11 -21 -3 -16 13 7 46
66 38 66 -3 0 -8 -6 -12 -12z"/>
<path d="M3613 838 c-24 -32 -24 -41 0 -19 15 14 27 26 27 28 0 8 -19 2 -27
-9z"/>
<path d="M4134 798 l-19 -23 23 19 c21 18 27 26 19 26 -2 0 -12 -10 -23 -22z"/>
<path d="M4068 739 c-20 -18 -25 -26 -13 -21 21 11 63 52 52 52 -4 0 -21 -14
-39 -31z"/>
<path d="M3989 673 c-13 -16 -12 -17 4 -4 16 13 21 21 13 21 -2 0 -10 -8 -17
-17z"/>
<path d="M3919 893 c-13 -16 -12 -17 4 -4 9 7 17 15 17 17 0 8 -8 3 -21 -13z"/>
<path d="M3828 819 l-33 -31 38 27 c20 15 37 29 37 31 0 10 -12 2 -42 -27z"/>
<path d="M4835 1620 c-4 -12 -5 -24 -2 -27 3 -2 8 5 12 17 4 12 5 24 2 27 -3
2 -8 -5 -12 -17z"/>
<path d="M4745 1449 c-22 -22 -32 -37 -23 -34 15 6 75 75 66 75 -2 0 -22 -18
-43 -41z"/>
<path d="M4460 1190 c-6 -11 -8 -20 -6 -20 3 0 10 9 16 20 6 11 8 20 6 20 -3
0 -10 -9 -16 -20z"/>
<path d="M4095 579 c-33 -27 -67 -57 -75 -66 -43 -44 80 47 145 108 6 6 6 9 0
8 -6 0 -37 -23 -70 -50z"/>
<path d="M3565 400 c-3 -6 1 -7 9 -4 18 7 21 14 7 14 -6 0 -13 -4 -16 -10z"/>
<path d="M3485 360 c-3 -6 1 -7 9 -4 18 7 21 14 7 14 -6 0 -13 -4 -16 -10z"/>
</g>
</svg>
