<svg width="400" height="400" viewBox="0 0 400 400" fill="none" xmlns="http://www.w3.org/2000/svg">
<g clip-path="url(#clip0_2_42)">
<path d="M375 379.5H300C297.513 379.5 295.5 377.487 295.5 375V342H242V375C242 377.487 239.988 379.5 237.5 379.5H162.5C160.013 379.5 158 377.487 158 375V342H104.5V375C104.5 377.487 102.488 379.5 100 379.5H25C22.5125 379.5 20.5 377.487 20.5 375V300C20.5 297.512 22.5125 295.5 25 295.5H58V242H25C22.5125 242 20.5 239.987 20.5 237.5V162.5C20.5 160.012 22.5125 158 25 158H58V104.5H25C22.5125 104.5 20.5 102.487 20.5 100V25C20.5 22.5125 22.5125 20.5 25 20.5H100C102.488 20.5 104.5 22.5125 104.5 25V58H158V25C158 22.5125 160.013 20.5 162.5 20.5H237.5C239.988 20.5 242 22.5125 242 25V58H295.488V25C295.488 22.5125 297.5 20.5 299.988 20.5H374.988C377.475 20.5 379.488 22.5125 379.488 25V100C379.488 102.487 377.475 104.5 374.988 104.5H341.988V158H375C377.488 158 379.5 160.012 379.5 162.5V237.5C379.5 239.987 377.488 242 375 242H342V295.487H375C377.488 295.487 379.5 297.5 379.5 299.987V374.987C379.5 377.487 377.488 379.5 375 379.5ZM304.5 370.5H370.488V304.5H304.5V370.5ZM167 370.5H233V304.5H167V370.5ZM29.5 370.5H95.5V304.5H29.5V370.5ZM242 333H295.488V300C295.488 297.512 297.5 295.5 299.988 295.5H332.988V242H300C297.513 242 295.5 239.987 295.5 237.5V204.5H242V237.5C242 239.987 239.988 242 237.5 242H204.5V295.487H237.5C239.988 295.487 242 297.5 242 299.987V333ZM104.5 333H158V300C158 297.512 160.013 295.5 162.5 295.5H195.5V242H162.5C160.013 242 158 239.987 158 237.5V204.5H104.5V237.5C104.5 239.987 102.488 242 100 242H67V295.487H100C102.488 295.487 104.5 297.5 104.5 299.987V333ZM337.5 233H370.5V167H304.5V233H337.5ZM200 233H233V167H167V233H200ZM62.5 233H95.5V167H29.5V233H62.5ZM242 195.5H295.488V162.5C295.488 160.012 297.5 158 299.988 158H332.988V104.5H300C297.513 104.5 295.5 102.487 295.5 100V67H242V100C242 102.487 239.988 104.5 237.5 104.5H204.5V158H237.5C239.988 158 242 160.012 242 162.5V195.5ZM104.5 195.5H158V162.5C158 160.012 160.013 158 162.5 158H195.5V104.5H162.5C160.013 104.5 158 102.487 158 100V67H104.5V100C104.5 102.487 102.488 104.5 100 104.5H67V158H100C102.488 158 104.5 160.012 104.5 162.5V195.5ZM337.5 95.5H370.5V29.5H304.5V95.5H337.5ZM200 95.5H233V29.5H167V95.5H200ZM62.5 95.5H95.5V29.5H29.5V95.5H62.5Z" fill="#FFC947"/>
</g>
<defs>
<clipPath id="clip0_2_42">
<rect width="400" height="400" fill="white"/>
</clipPath>
</defs>
</svg>
